<svg width="400" height="600" viewBox="0 0 400 600" fill="none" xmlns="http://www.w3.org/2000/svg">
<g clip-path="url(#clip0_5_40)">
<rect x="334.877" y="-92.2489" width="561.38" height="852.779" rx="50" transform="rotate(45 334.877 -92.2489)" fill="url(#paint0_linear_5_40)"/>
<rect x="90" y="456" width="382" height="206" rx="50" fill="#7770B3"/>
<rect x="312" y="-50" width="160" height="265" rx="50" fill="#A69CD8"/>
<rect x="281.113" y="-196" width="561.38" height="640.113" rx="50" transform="rotate(90 281.113 -196)" fill="white"/>
<path d="M29.6715 17.457H24.2276C24.1282 16.7527 23.9252 16.1271 23.6186 15.5803C23.312 15.0251 22.9184 14.5528 22.4379 14.1634C21.9573 13.7739 21.4021 13.4756 20.7724 13.2685C20.1509 13.0613 19.4756 12.9577 18.7464 12.9577C17.429 12.9577 16.2814 13.285 15.3036 13.9396C14.3259 14.5859 13.5677 15.5305 13.0291 16.7734C12.4905 18.008 12.2212 19.5078 12.2212 21.2727C12.2212 23.0874 12.4905 24.612 13.0291 25.8466C13.576 27.0812 14.3383 28.0134 15.3161 28.6431C16.2938 29.2728 17.4248 29.5877 18.7092 29.5877C19.43 29.5877 20.0971 29.4924 20.7102 29.3018C21.3317 29.1113 21.8827 28.8337 22.3633 28.4691C22.8439 28.0962 23.2416 27.6446 23.5565 27.1143C23.8796 26.584 24.1033 25.9792 24.2276 25.2997L29.6715 25.3246C29.5307 26.4929 29.1785 27.6198 28.6151 28.7053C28.0599 29.7824 27.31 30.7478 26.3654 31.6012C25.4291 32.4464 24.3105 33.1175 23.0096 33.6147C21.717 34.1036 20.2545 34.348 18.6222 34.348C16.3518 34.348 14.3217 33.8343 12.532 32.8068C10.7505 31.7794 9.34186 30.292 8.30611 28.3448C7.27865 26.3976 6.76491 24.0402 6.76491 21.2727C6.76491 18.4969 7.28693 16.1354 8.33097 14.1882C9.375 12.241 10.7919 10.7578 12.5817 9.73864C14.3714 8.71117 16.3849 8.19744 18.6222 8.19744C20.0971 8.19744 21.4643 8.40459 22.7237 8.81889C23.9915 9.23319 25.1142 9.83807 26.092 10.6335C27.0697 11.4207 27.8652 12.386 28.4783 13.5295C29.0998 14.6729 29.4975 15.9821 29.6715 17.457ZM56.9221 21.2727C56.9221 24.0485 56.3959 26.41 55.3436 28.3572C54.2995 30.3045 52.8743 31.7918 51.068 32.8192C49.2699 33.8384 47.2482 34.348 45.0027 34.348C42.7406 34.348 40.7105 33.8343 38.9125 32.8068C37.1144 31.7794 35.6934 30.292 34.6493 28.3448C33.6053 26.3976 33.0833 24.0402 33.0833 21.2727C33.0833 18.4969 33.6053 16.1354 34.6493 14.1882C35.6934 12.241 37.1144 10.7578 38.9125 9.73864C40.7105 8.71117 42.7406 8.19744 45.0027 8.19744C47.2482 8.19744 49.2699 8.71117 51.068 9.73864C52.8743 10.7578 54.2995 12.241 55.3436 14.1882C56.3959 16.1354 56.9221 18.4969 56.9221 21.2727ZM51.4657 21.2727C51.4657 19.4747 51.1964 17.9583 50.6578 16.7237C50.1275 15.4891 49.3777 14.5528 48.4082 13.9148C47.4387 13.2768 46.3036 12.9577 45.0027 12.9577C43.7018 12.9577 42.5666 13.2768 41.5971 13.9148C40.6277 14.5528 39.8736 15.4891 39.335 16.7237C38.8047 17.9583 38.5396 19.4747 38.5396 21.2727C38.5396 23.0708 38.8047 24.5871 39.335 25.8217C39.8736 27.0563 40.6277 27.9927 41.5971 28.6307C42.5666 29.2687 43.7018 29.5877 45.0027 29.5877C46.3036 29.5877 47.4387 29.2687 48.4082 28.6307C49.3777 27.9927 50.1275 27.0563 50.6578 25.8217C51.1964 24.5871 51.4657 23.0708 51.4657 21.2727ZM82.1995 8.54545V34H77.551L66.4768 17.979H66.2904V34H60.9086V8.54545H65.6317L76.6189 24.554H76.8426V8.54545H82.1995ZM107.937 8.54545V34H103.288L92.2141 17.979H92.0277V34H86.646V8.54545H91.369L102.356 24.554H102.58V8.54545H107.937ZM112.383 34V8.54545H129.535V12.9826H117.765V19.0479H128.653V23.4851H117.765V29.5629H129.585V34H112.383ZM138.86 8.54545L143.993 17.2209H144.192L149.35 8.54545H155.428L147.66 21.2727L155.602 34H149.412L144.192 25.3121H143.993L138.773 34H132.608L140.575 21.2727L132.757 8.54545H138.86ZM164.215 8.54545V34H158.833V8.54545H164.215ZM192.034 21.2727C192.034 24.0485 191.508 26.41 190.456 28.3572C189.412 30.3045 187.987 31.7918 186.18 32.8192C184.382 33.8384 182.36 34.348 180.115 34.348C177.853 34.348 175.823 33.8343 174.025 32.8068C172.227 31.7794 170.806 30.292 169.762 28.3448C168.718 26.3976 168.196 24.0402 168.196 21.2727C168.196 18.4969 168.718 16.1354 169.762 14.1882C170.806 12.241 172.227 10.7578 174.025 9.73864C175.823 8.71117 177.853 8.19744 180.115 8.19744C182.36 8.19744 184.382 8.71117 186.18 9.73864C187.987 10.7578 189.412 12.241 190.456 14.1882C191.508 16.1354 192.034 18.4969 192.034 21.2727ZM186.578 21.2727C186.578 19.4747 186.309 17.9583 185.77 16.7237C185.24 15.4891 184.49 14.5528 183.521 13.9148C182.551 13.2768 181.416 12.9577 180.115 12.9577C178.814 12.9577 177.679 13.2768 176.709 13.9148C175.74 14.5528 174.986 15.4891 174.447 16.7237C173.917 17.9583 173.652 19.4747 173.652 21.2727C173.652 23.0708 173.917 24.5871 174.447 25.8217C174.986 27.0563 175.74 27.9927 176.709 28.6307C177.679 29.2687 178.814 29.5877 180.115 29.5877C181.416 29.5877 182.551 29.2687 183.521 28.6307C184.49 27.9927 185.24 27.0563 185.77 25.8217C186.309 24.5871 186.578 23.0708 186.578 21.2727ZM217.312 8.54545V34H212.663L201.589 17.979H201.403V34H196.021V8.54545H200.744L211.731 24.554H211.955V8.54545H217.312Z" fill="#BCB7E6"/>
</g>
<defs>
<linearGradient id="paint0_linear_5_40" x1="615.567" y1="-92.2489" x2="615.567" y2="760.53" gradientUnits="userSpaceOnUse">
<stop offset="0.163333" stop-color="#7A70CB"/>
<stop offset="1" stop-color="#271C47"/>
</linearGradient>
<clipPath id="clip0_5_40">
<rect width="400" height="600" rx="25" fill="white"/>
</clipPath>
</defs>
</svg>
