<svg width="115" height="73" viewBox="0 0 115 73" fill="none" xmlns="http://www.w3.org/2000/svg">
<path fill-rule="evenodd" clip-rule="evenodd" d="M20.6281 35.7031L34.7875 49.8625C35.3171 50.356 35.7419 50.9511 36.0366 51.6124C36.3312 52.2736 36.4896 52.9874 36.5024 53.7112C36.5151 54.435 36.382 55.154 36.1109 55.8252C35.8398 56.4965 35.4362 57.1062 34.9243 57.6181C34.4125 58.13 33.8027 58.5335 33.1315 58.8046C32.4603 59.0757 31.7413 59.2089 31.0175 59.1961C30.2937 59.1833 29.5799 59.0249 28.9186 58.7303C28.2574 58.4357 27.6623 58.0109 27.1687 57.4812L3.80937 34.1219L0 30.3125L3.80937 26.5031L27.1687 3.14375C28.1906 2.19155 29.5422 1.67316 30.9388 1.6978C32.3353 1.72244 33.6678 2.28818 34.6554 3.27584C35.6431 4.26349 36.2088 5.59595 36.2334 6.99249C36.2581 8.38903 35.7397 9.74061 34.7875 10.7625L20.6281 24.9219H91.6406C97.8359 24.9219 103.777 27.3829 108.158 31.7637C112.539 36.1444 115 42.0859 115 48.2812C115 54.4765 112.539 60.4181 108.158 64.7988C103.777 69.1795 97.8359 71.6406 91.6406 71.6406H77.2656C75.8359 71.6406 74.4648 71.0727 73.4539 70.0617C72.4429 69.0508 71.875 67.6797 71.875 66.25C71.875 64.8203 72.4429 63.4492 73.4539 62.4382C74.4648 61.4273 75.8359 60.8594 77.2656 60.8594H91.6406C94.9766 60.8594 98.1758 59.5342 100.535 57.1753C102.894 54.8165 104.219 51.6172 104.219 48.2812C104.219 44.9453 102.894 41.746 100.535 39.3872C98.1758 37.0283 94.9766 35.7031 91.6406 35.7031H20.6281Z" fill="url(#paint0_linear_81_947)" stroke="#BEB8EC" stroke-width="2"/>
<defs>
<linearGradient id="paint0_linear_81_947" x1="57.5" y1="1.69696" x2="57.5" y2="71.6406" gradientUnits="userSpaceOnUse">
<stop stop-color="#443B85"/>
<stop offset="1" stop-color="#8177CA"/>
</linearGradient>
</defs>
</svg>
