<svg width="115" height="115" viewBox="0 0 115 115" fill="none" xmlns="http://www.w3.org/2000/svg">
<path fill-rule="evenodd" clip-rule="evenodd" d="M20.6281 55.7029L34.7875 69.8623C35.3171 70.3558 35.7419 70.9509 36.0366 71.6122C36.3312 72.2734 36.4896 72.9873 36.5024 73.7111C36.5151 74.4349 36.382 75.1538 36.1109 75.825C35.8398 76.4963 35.4362 77.106 34.9243 77.6179C34.4125 78.1298 33.8027 78.5333 33.1315 78.8044C32.4603 79.0756 31.7413 79.2087 31.0175 79.1959C30.2937 79.1832 29.5799 79.0247 28.9186 78.7301C28.2574 78.4355 27.6623 78.0107 27.1687 77.4811L3.80937 54.1217L0 50.3123L3.80937 46.5029L27.1687 23.1436C28.1906 22.1914 29.5422 21.673 30.9388 21.6976C32.3353 21.7223 33.6678 22.288 34.6554 23.2757C35.6431 24.2633 36.2088 25.5958 36.2334 26.9923C36.2581 28.3888 35.7397 29.7404 34.7875 30.7623L20.6281 44.9217H91.6406C97.8359 44.9217 103.777 47.3828 108.158 51.7635C112.539 56.1442 115 62.0858 115 68.2811C115 74.4763 112.539 80.4179 108.158 84.7986C103.777 89.1794 97.8359 91.6404 91.6406 91.6404H77.2656C75.8359 91.6404 74.4648 91.0725 73.4539 90.0616C72.4429 89.0506 71.875 87.6795 71.875 86.2498C71.875 84.8201 72.4429 83.449 73.4539 82.4381C74.4648 81.4271 75.8359 80.8592 77.2656 80.8592H91.6406C94.9766 80.8592 98.1758 79.534 100.535 77.1751C102.894 74.8163 104.219 71.617 104.219 68.2811C104.219 64.9451 102.894 61.7458 100.535 59.387C98.1758 57.0281 94.9766 55.7029 91.6406 55.7029H20.6281Z" fill="#443B85"/>
</svg>
