<svg width="115" height="115" viewBox="0 0 115 115" fill="none" xmlns="http://www.w3.org/2000/svg">
<path d="M39.0872 11.7736V11.1711C39.4002 5.50356 44.101 1 49.851 1H103.228C106.085 1.0021 108.825 2.13819 110.845 4.1584C112.865 6.17867 114 8.91777 114 11.7736V103.226C114 106.084 112.864 108.824 110.843 110.844C108.821 112.865 106.079 114 103.22 114H63.9335C64.342 112.509 64.5644 110.938 64.5644 109.32V94.2469C64.5644 93.9559 64.5596 93.6653 64.55 93.3752C65.6521 93.5176 66.7644 93.5887 67.8867 93.5887H79.2689C83.5034 93.5887 87.5959 92.0621 90.795 89.2891C93.9942 86.5161 96.0853 82.6828 96.6842 78.4928C97.2831 74.3027 96.3496 70.0375 94.0553 66.48C92.0603 63.3869 89.153 61.0094 85.7559 59.6626C87.9822 57.2922 89.7258 54.5045 90.8826 51.4547C92.2333 47.8939 92.748 44.0708 92.3872 40.2798C92.0264 36.4888 90.7997 32.8313 88.8017 29.5889C86.8036 26.3465 84.0875 23.6058 80.8627 21.5779C77.6378 19.5501 73.9903 18.2891 70.2011 17.8922C66.4118 17.4953 62.582 17.973 59.0066 19.2885C55.4311 20.6041 52.2056 22.7224 49.5783 25.4802C47.1993 27.9774 45.3685 30.9387 44.1977 34.1739C42.5449 33.5515 40.8324 33.0997 39.0872 32.8257V11.7736ZM54.0803 56.7978L54.109 56.8264L66.4414 69.1518L66.4414 69.1518L66.4497 69.16C66.8307 69.532 67.34 69.7436 67.8725 69.7512L67.8796 69.7513H67.8867H79.2606C80.9208 69.7513 82.5128 70.4104 83.6866 71.5835C84.8603 72.7565 85.5196 74.3474 85.5196 76.0061C85.5196 77.6648 84.8603 79.2557 83.6866 80.4288C82.5128 81.6019 80.9208 82.261 79.2606 82.261H67.8867C64.028 82.261 60.3252 80.7324 57.593 78.0018L50.3422 70.7552L49.6353 70.0487L48.9284 70.7552L43.0382 76.642L42.3295 77.3503L43.0392 78.0576L48.9606 83.959C48.961 83.9594 48.9614 83.9598 48.9618 83.9602C51.6868 86.692 53.2231 90.3928 53.2231 94.2469V107.248C53.2231 108.906 52.5638 110.497 51.39 111.67C50.2163 112.843 48.6242 113.503 46.964 113.503C45.3038 113.503 43.7117 112.843 42.538 111.67C41.3642 110.497 40.7049 108.906 40.7049 107.248V94.2469V94.2359L40.7047 94.2249C40.6931 93.6978 40.4815 93.195 40.113 92.8181L40.1054 92.8105L34.0907 86.791L33.4744 86.1741L32.7793 86.7009C30.2459 88.6209 27.1543 89.6618 23.9746 89.6651H7.25905C5.59887 89.6651 4.00679 89.006 2.83303 87.8329C1.65929 86.6598 1 85.0689 1 83.4102C1 81.7515 1.65929 80.1606 2.83303 78.9876C4.00679 77.8145 5.59886 77.1554 7.25905 77.1554H23.9756H23.9827L23.9898 77.1553C24.5222 77.1477 25.0316 76.9361 25.4126 76.5641L25.4127 76.5641L25.4211 76.5557L40.0719 61.905L40.7801 61.1969L40.0709 60.4898L36.5202 56.9494L36.5202 56.9494L36.5129 56.9422C36.1358 56.5739 35.633 56.3626 35.1061 56.351L35.0951 56.3507H35.084H20.0018C18.3416 56.3507 16.7495 55.6916 15.5758 54.5185C14.402 53.3455 13.7428 51.7546 13.7428 50.0959C13.7428 48.4372 14.402 46.8463 15.5758 45.6732C16.7495 44.5002 18.3416 43.841 20.0018 43.841H35.0923C38.9499 43.841 42.6524 45.377 45.3767 48.1075L45.3781 48.1089L54.0102 56.7278L54.0392 56.7567L54.0803 56.7978ZM55.082 42.6337C55.082 39.3148 56.4012 36.1317 58.7496 33.7847C61.098 31.4376 64.2832 30.119 67.6046 30.119C70.926 30.119 74.1112 31.4376 76.4596 33.7847C78.808 36.1317 80.1272 39.3148 80.1272 42.6337C80.1272 45.9527 78.808 49.1358 76.4596 51.4828C74.1112 53.8299 70.926 55.1485 67.6046 55.1485C64.2832 55.1485 61.098 53.8299 58.7496 51.4828C56.4012 49.1358 55.082 45.9527 55.082 42.6337Z" fill="url(#paint0_linear_1_392)" stroke="#BEB8EC" stroke-width="2"/>
<defs>
<linearGradient id="paint0_linear_1_392" x1="57.5" y1="0" x2="57.5" y2="115" gradientUnits="userSpaceOnUse">
<stop stop-color="#C64040"/>
<stop offset="0.71" stop-color="#AC414D"/>
<stop offset="1" stop-color="#423C6B"/>
</linearGradient>
</defs>
</svg>
